<svg xmlns="http://www.w3.org/2000/svg" viewBox="0 -77.42 504.95 99.10" aria-label="shipmail" role="img"><path fill="#161615" fill-rule="evenodd" transform="translate(0 -68.52) scale(1.507) translate(-24.86 -23)" d="M30.87 23L68 23A16 16 0 0 1 84 39L84 61A16 16 0 0 1 68 77L30.87 77A6 6 0 0 1 26.7 66.68L40.27 53.6A5 5 0 0 0 40.27 46.4L26.7 33.32A6 6 0 0 1 30.87 23ZM49 58H69A4 4 0 0 1 73 62V62A4 4 0 0 1 69 66H49A4 4 0 0 1 45 62V62A4 4 0 0 1 49 58Z"/><path fill="#FFDD1F" transform="translate(0 -68.52) scale(1.507) translate(-24.86 -23)" d="M49 58H69A4 4 0 0 1 73 62V62A4 4 0 0 1 69 66H49A4 4 0 0 1 45 62V62A4 4 0 0 1 49 58Z"/><path fill="#161615" d="M144.11304979253111 1.2046680497925313Q139.669163208852 1.2046680497925313 135.4662102351314 0.04015560165975107Q131.26325726141079 -1.1243568464730291 127.71617911479944 -3.2526037344398344Q124.1691009681881 -5.38085062240664 121.59914246196404 -8.352365145228216L129.97827800829876 -16.811811894882435Q132.6285477178423 -13.840297372060858 136.1354702627939 -12.300999308437069Q139.6423928077455 -10.76170124481328 143.9256569847856 -10.76170124481328Q147.3522683264177 -10.76170124481328 149.1325 -11.765591286307055Q150.9127316735823 -12.76948132780083 150.9127316735823 -14.67017980636238Q150.9127316735823 -16.811811894882435 149.02541839557398 -17.962939142461963Q147.1381051175657 -19.114066390041494 144.1665905947441 -19.957334024896266Q141.19507607192253 -20.800601659751038 137.90231673582295 -21.777721300138314Q134.60955739972337 -22.75484094052559 131.62465767634853 -24.441376210235134Q128.63975795297372 -26.127911479944675 126.76582987551868 -29.086040802213Q124.89190179806361 -32.044170124481326 124.89190179806361 -36.72899031811895Q124.89190179806361 -41.68151452282158 127.32800829875518 -45.308903872752424Q129.76411479944676 -48.93629322268327 134.23477178423235 -50.95745850622407Q138.70542876901797 -52.978623789764875 144.83585062240664 -52.978623789764875Q151.23397648686029 -52.978623789764875 156.44081950207467 -50.743295297372065Q161.64766251728906 -48.507966804979255 165.02073305670817 -44.03730982019364L156.61482710926694 -35.57786307053942Q154.25903181189489 -38.4155255878285 151.28751728907332 -39.713890041493784Q148.31600276625173 -41.01225449515906 144.96970262793914 -41.01225449515906Q141.81079529737207 -41.01225449515906 140.16441562932226 -40.06190525587829Q138.51803596127246 -39.11155601659751 138.51803596127246 -37.37147994467497Q138.51803596127246 -35.470781466113415 140.3919640387275 -34.39996542185339Q142.26589211618256 -33.32914937759336 145.23740663900412 -32.52603734439834Q148.2089211618257 -31.722925311203323 151.48829529737205 -30.692264868603047Q154.76766943291838 -29.661604426002768 157.73918395573997 -27.85460235131397Q160.71069847856154 -26.047600276625175 162.5846265560166 -23.049315352697096Q164.45855463347164 -20.051030428769018 164.45855463347164 -15.259128630705394Q164.45855463347164 -7.683105117565699 158.970622406639 -3.239218533886584Q153.48269017980635 1.2046680497925313 144.11304979253111 1.2046680497925313ZM206.46131396957122 0.0V-29.634834024896268Q206.46131396957122 -34.266113416320884 203.57011065006915 -37.17070193637621Q200.67890733056709 -40.07529045643154 196.174377593361 -40.07529045643154Q193.10916666666668 -40.07529045643154 190.75022994467497 -38.763540802213Q188.39129322268326 -37.45179114799447 187.0661583679115 -35.08261065006916Q185.7410235131397 -32.71343015214385 185.7410235131397 -29.634834024896268L180.25309128630707 -32.47249654218534Q180.25309128630707 -38.495836791147994 182.83643499308437 -43.06019017980636Q185.4197786998617 -47.62454356846473 189.9891600318751 -50.207887275242044Q194.55854136388848 -52.791230982019364 200.4162312628571 -52.791230982019364Q206.32746196403872 -52.791230982019364 210.87843015214384 -50.23465767634855Q215.42939834024895 -47.67808437067774 217.9859716459198 -43.18065698478562Q220.5425449515906 -38.683229598893504 220.5425449515906 -32.76697095435685V0.0ZM171.65979253112033 0.0V-77.42H185.7410235131397V0.0ZM229.75156293222685 0.0V-51.72041493775934H243.8327939142462V0.0ZM236.79217842323652 -60.019239280774556Q233.39233748271093 -60.019239280774556 231.1436237897649 -62.33487897648686Q228.89491009681882 -64.65051867219917 228.89491009681882 -68.05035961272476Q228.89491009681882 -71.45020055325035 231.1436237897649 -73.76584024896266Q233.39233748271093 -76.08147994467497 236.79217842323652 -76.08147994467497Q240.29910096818813 -76.08147994467497 242.4942738589212 -73.76584024896266Q244.68944674965422 -71.45020055325035 244.68944674965422 -68.05035961272476Q244.68944674965422 -64.65051867219917 242.4942738589212 -62.33487897648686Q240.29910096818813 -60.019239280774556 236.79217842323652 -60.019239280774556ZM282.8640387275242 1.0708160442600276Q277.26902489626553 1.0708160442600276 272.77159751037345 -1.2046680497925313Q268.2741701244813 -3.48015214384509 265.58374481327803 -7.468941908713694Q262.8933195020747 -11.457731673582296 262.67915629322266 -16.54410788381743V-34.908603042876905Q262.8933195020747 -39.994979253112035 265.6239004149378 -44.050695020746886Q268.35448132780084 -48.106410788381744 272.8491928758995 -50.448820885200554Q277.3439044239982 -52.791230982019364 282.8640387275242 -52.791230982019364Q290.0385062240664 -52.791230982019364 295.7138312586445 -49.23076763485477Q301.38915629322264 -45.67030428769018 304.6551452282157 -39.58003803596127Q307.9211341632088 -33.48977178423237 307.9211341632088 -25.77989626556017Q307.9211341632088 -18.15033195020747 304.6551452282157 -12.073450899031812Q301.38915629322264 -5.996569847856155 295.7138312586445 -2.462876901798064Q290.0385062240664 1.0708160442600276 282.8640387275242 1.0708160442600276ZM254.11262793914244 21.684024896265562V-51.72041493775934H268.1938589211618V-38.133415979755505L265.8112932226833 -25.53896265560166L268.0600069156293 -13.010414937759336V21.684024896265562ZM280.4163488802 -11.886058091286309Q284.29290888658363 -11.886058091286309 287.2460187586445 -13.666289764868605Q290.1991286307054 -15.4465214384509 291.8856639004149 -18.607262358134864Q293.57219917012446 -21.76800327781883 293.57219917012446 -25.87010885011084Q293.57219917012446 -29.982849239280775 291.8856639004149 -33.128371369294605Q290.1991286307054 -36.273893499308436 287.2525651613423 -38.054125172890735Q284.3060016919792 -39.83435684647303 280.45288328029113 -39.83435684647303Q276.599764868603 -39.83435684647303 273.61505913364203 -38.06265639961698Q270.630353398681 -36.29095595276093 268.9837797422174 -33.137638046600706Q267.3372060857538 -29.984320140440477 267.3372060857538 -25.863737631662943Q267.3372060857538 -21.764336099585062 268.9702005532503 -18.60542876901798Q270.60319502074685 -15.4465214384509 273.5880947441217 -13.666289764868605Q276.5729944674965 -11.886058091286309 280.4163488802 -11.886058091286309ZM314.93497925311203 0.0V-51.72041493775934H329.0162102351314V0.0ZM348.6656846473029 0.0V-30.51825726141079Q348.6656846473029 -35.04245504840941 345.8547925311203 -37.55887275242047Q343.04390041493775 -40.07529045643154 338.89448824343015 -40.07529045643154Q336.0568257261411 -40.07529045643154 333.83488243430156 -38.93754840940526Q331.612939142462 -37.79980636237898 330.3145746887967 -35.67155947441218Q329.0162102351314 -33.54331258644537 329.0162102351314 -30.51825726141079L323.52827800829874 -33.19529737206086Q323.52827800829874 -39.21863762102352 326.1651625172891 -43.58221300138313Q328.8020470262794 -47.945788381742744 333.29947441217155 -50.36850968188105Q337.79690179806363 -52.791230982019364 343.4186860304288 -52.791230982019364Q348.85307745504844 -52.791230982019364 353.2300380359613 -50.3818948824343Q357.60699861687414 -47.97255878284924 360.1769571230982 -43.62236860304288Q362.7469156293223 -39.27217842323652 362.7469156293223 -33.22206777316736V0.0ZM382.39639004149376 0.0V-30.51825726141079Q382.39639004149376 -35.04245504840941 379.5854979253112 -37.55887275242047Q376.7746058091286 -40.07529045643154 372.625193637621 -40.07529045643154Q369.8678423236515 -40.07529045643154 367.6057434301522 -38.93754840940526Q365.34364453665285 -37.79980636237898 364.0452800829876 -35.67155947441218Q362.7469156293223 -33.54331258644537 362.7469156293223 -30.51825726141079L354.68902489626555 -32.41895573997234Q355.09058091286306 -38.683229598893504 357.9951694329184 -43.22081258644537Q360.89975795297374 -47.758395573997234 365.62473374827107 -50.274813278008295Q370.34970954356845 -52.791230982019364 376.13211618257264 -52.791230982019364Q381.8877524204703 -52.791230982019364 386.47887621023517 -50.355124481327806Q391.07 -47.91901798063624 393.77381051175655 -43.44836099585062Q396.47762102351317 -38.97770401106501 396.47762102351317 -32.71343015214385V0.0ZM427.26358229598895 1.0708160442600276Q420.19619640387276 1.0708160442600276 414.56102697095434 -2.462876901798064Q408.925857538036 -5.996569847856155 405.67325380359614 -12.073450899031812Q402.4206500691563 -18.15033195020747 402.4206500691563 -25.77989626556017Q402.4206500691563 -33.48977178423237 405.67325380359614 -39.58003803596127Q408.925857538036 -45.67030428769018 414.56102697095434 -49.23076763485477Q420.19619640387276 -52.791230982019364 427.26358229598895 -52.791230982019364Q432.83182572614106 -52.791230982019364 437.2221715076072 -50.515746887966806Q441.6125172890733 -48.24026279391425 444.2761721991701 -44.25147302904564Q446.93982710926696 -40.26268326417704 447.12721991701244 -35.17630705394191V-16.54410788381743Q446.93982710926696 -11.457731673582296 444.31632780082987 -7.468941908713694Q441.69282849239283 -3.48015214384509 437.26232710926695 -1.2046680497925313Q432.83182572614106 1.0708160442600276 427.26358229598895 1.0708160442600276ZM429.887081604426 -11.886058091286309Q435.77656984785614 -11.886058091286309 439.39057399723373 -15.80792185338866Q443.0045781466113 -19.72978561549101 443.0045781466113 -25.86020746887967Q443.0045781466113 -29.982849239280775 441.3715836791148 -33.128371369294605Q439.73858921161826 -36.273893499308436 436.7938450899032 -38.054125172890735Q433.8491009681881 -39.83435684647303 429.91385200553253 -39.83435684647303Q426.0589142461964 -39.83435684647303 423.11417012448135 -38.054125172890735Q420.1694260027663 -36.273893499308436 418.4695055325035 -33.11498616874135Q416.76958506224065 -29.956078838174275 416.76958506224065 -25.86020746887967Q416.76958506224065 -21.764336099585062 418.45612033195016 -18.60542876901798Q420.1426556016597 -15.4465214384509 423.1007849239281 -13.666289764868605Q426.0589142461964 -11.886058091286309 429.887081604426 -11.886058091286309ZM442.2817773167358 0.0V-13.89383817427386L444.5304910096819 -26.502697095435686L442.2817773167358 -39.00447441217151V-51.72041493775934H456.2291562932227V0.0ZM466.5089903181189 0.0V-51.72041493775934H480.5902213001383V0.0ZM473.5496058091286 -60.019239280774556Q470.14976486860303 -60.019239280774556 467.90105117565696 -62.33487897648686Q465.6523374827109 -64.65051867219917 465.6523374827109 -68.05035961272476Q465.6523374827109 -71.45020055325035 467.90105117565696 -73.76584024896266Q470.14976486860303 -76.08147994467497 473.5496058091286 -76.08147994467497Q477.05652835408017 -76.08147994467497 479.25170124481326 -73.76584024896266Q481.4468741355463 -71.45020055325035 481.4468741355463 -68.05035961272476Q481.4468741355463 -64.65051867219917 479.25170124481326 -62.33487897648686Q477.05652835408017 -60.019239280774556 473.5496058091286 -60.019239280774556ZM490.8700553250346 0.0V-77.42H504.951286307054V0.0Z"/></svg>